<svg xmlns="http://www.w3.org/2000/svg" viewBox="0 0 800 600" role="img" aria-label="PowerScrub Brush Kit product visual">
  <defs>
    <linearGradient id="bg" x1="0" y1="0" x2="1" y2="1">
      <stop offset="0" stop-color="#0c1220"/>
      <stop offset="0.55" stop-color="#17202a"/>
      <stop offset="1" stop-color="#e85d4f" stop-opacity="0.9"/>
    </linearGradient>
    <linearGradient id="card" x1="0" y1="0" x2="1" y2="1">
      <stop offset="0" stop-color="#ffffff" stop-opacity="0.95"/>
      <stop offset="1" stop-color="#dff6ee" stop-opacity="0.88"/>
    </linearGradient>
  </defs>
  <rect width="800" height="600" rx="0" fill="url(#bg)"/>
  <path d="M0 445 C150 390 220 515 370 455 C520 395 610 420 800 350 L800 600 L0 600 Z" fill="#ffffff" opacity="0.08"/>
  <rect x="110" y="90" width="580" height="410" rx="44" fill="url(#card)" opacity="0.95"/>
  <rect x="150" y="130" width="500" height="250" rx="34" fill="#ffffff" opacity="0.72"/>
  <circle cx="270" cy="255" r="76" fill="#e85d4f" opacity="0.18"/>
  <rect x="350" y="190" width="190" height="36" rx="18" fill="#e85d4f" opacity="0.22"/>
  <rect x="350" y="246" width="240" height="28" rx="14" fill="#111827" opacity="0.14"/>
  <rect x="350" y="292" width="160" height="28" rx="14" fill="#111827" opacity="0.10"/>
  <text x="400" y="425" text-anchor="middle" font-family="Inter, Arial, sans-serif" font-size="34" font-weight="800" fill="#111827">PowerScrub Brush Kit</text>
  <text x="400" y="462" text-anchor="middle" font-family="Inter, Arial, sans-serif" font-size="18" font-weight="700" fill="#e85d4f">Home &amp; Organization</text>
  <text x="400" y="520" text-anchor="middle" font-family="Inter, Arial, sans-serif" font-size="15" font-weight="800" letter-spacing="3" fill="#ffffff" opacity="0.72">NUVORO MARKET</text>
</svg>
